<svg id="Layer_2" data-name="Layer 2" xmlns="http://www.w3.org/2000/svg" width="18" height="18" viewBox="0 0 18 18">
  <g id="invisible_box" data-name="invisible box">
    <rect id="Rectángulo_72" data-name="Rectángulo 72" width="18" height="18" fill="none"/>
  </g>
  <g id="icons_Q2" data-name="icons Q2" transform="translate(0.747 0.747)">
    <g id="Grupo_65" data-name="Grupo 65">
      <path id="Trazado_38" data-name="Trazado 38" d="M16.26,12.154l2.053-.56a8.586,8.586,0,0,0,0-2.762l-2.053-.56A.672.672,0,0,1,15.85,7.3l1.045-1.867a7.69,7.69,0,0,0-1.9-1.9L13.125,4.576l-.3.075a.672.672,0,0,1-.672-.485l-.56-2.053a8.586,8.586,0,0,0-2.762,0l-.56,2.053a.672.672,0,0,1-.672.485l-.3-.075L5.435,3.531a7.69,7.69,0,0,0-1.9,1.9L4.576,7.3a.672.672,0,0,1-.411.971l-2.053.56a8.586,8.586,0,0,0,0,2.762l2.053.56a.672.672,0,0,1,.411.971L3.531,14.991a7.69,7.69,0,0,0,1.9,1.9L7.3,15.85l.3-.075a.672.672,0,0,1,.672.485l.56,2.053a8.586,8.586,0,0,0,2.762,0l.56-2.053a.672.672,0,0,1,.672-.485l.3.075,1.867,1.045a7.69,7.69,0,0,0,1.9-1.9L15.85,13.125a.672.672,0,0,1,.411-.971ZM15.812,10.7h-.075a2.277,2.277,0,0,0-1.269,1.232,2.128,2.128,0,0,0,.037,1.792h.037V13.8l.56.933a1.12,1.12,0,0,1-.3.3l-.933-.56h-.112a2.016,2.016,0,0,0-.933-.224,2.24,2.24,0,0,0-2.09,1.456v.112h0l-.336,1.12h-.373l-.3-1.083h0v-.075A2.24,2.24,0,0,0,7.6,14.282a2.016,2.016,0,0,0-.933.224H6.555l-.933.56a1.12,1.12,0,0,1-.3-.3l.56-.933v-.075H5.92a2.128,2.128,0,0,0,.037-1.792,2.277,2.277,0,0,0-1.269-1.232H4.576L3.493,10.4v-.373l1.083-.3h.112A2.277,2.277,0,0,0,5.957,8.5,2.128,2.128,0,0,0,5.92,6.7H5.883V6.629L5.323,5.7l.3-.3.933.56h.112a2.016,2.016,0,0,0,.933.224A2.24,2.24,0,0,0,9.69,4.725V4.613h0l.336-1.12H10.4l.3,1.083h0v.075a2.24,2.24,0,0,0,2.128,1.493,2.016,2.016,0,0,0,.933-.224h.112l.933-.56a1.12,1.12,0,0,1,.3.3l-.56.933v.075h-.037a2.128,2.128,0,0,0-.037,1.792A2.277,2.277,0,0,0,15.738,9.69h.112l1.083.3v.373l-1.083.3Z" transform="translate(-2 -2)" fill="#8266e2"/>
      <path id="Trazado_39" data-name="Trazado 39" d="M18.36,15a3.36,3.36,0,1,0,3.36,3.36A3.36,3.36,0,0,0,18.36,15Zm0,5.226a1.867,1.867,0,1,1,1.867-1.867A1.867,1.867,0,0,1,18.36,20.226Z" transform="translate(-10.147 -10.147)" fill="#8266e2"/>
    </g>
  </g>
</svg>
