<?xml version="1.0" encoding="utf-8"?>
<!-- Generator: Adobe Illustrator 24.1.1, SVG Export Plug-In . SVG Version: 6.00 Build 0)  -->
<svg version="1.1" id="Capa_1" xmlns="http://www.w3.org/2000/svg" xmlns:xlink="http://www.w3.org/1999/xlink" x="0px" y="0px"
	 viewBox="0 0 148.1 30" style="enable-background:new 0 0 148.1 30;" xml:space="preserve">
<style type="text/css">
	.st0{enable-background:new    ;}
	.st1{fill:#FFFFFF;}
</style>
<g class="st0">
	<path class="st1" d="M1.1,0.6c0.2-0.1,0.8-0.2,1.8-0.2c1,0,2.2-0.1,3.5-0.1c1.3,0,2.8,0,4.3,0s3,0,4.3,0.1c1.3,0,2.5,0.1,3.4,0.2
		c0.9,0.1,1.5,0.1,1.7,0.2c0.2,0.1,0.3,0.3,0.4,0.7c0.1,0.4,0.2,0.8,0.3,1.4C20.9,3.3,21,3.8,21,4.4c0,0.6,0,1.2,0,1.8
		c0,0.6-0.1,1.1-0.1,1.5c-0.1,0.4-0.1,0.7-0.2,0.9c-0.1,0.3-0.4,0.5-0.9,0.5c-0.5,0.1-1.1,0.1-1.7,0.1c-0.6,0-1.3,0-1.8,0
		c-0.6,0-1,0-1.3,0.1c-0.1,0.1-0.2,0.4-0.2,0.9c0,0.6,0,1.3,0,2.2c0,0.9,0.1,2,0.1,3.1s0.1,2.4,0.2,3.6c0.1,1.2,0.2,2.4,0.2,3.6
		c0.1,1.2,0.1,2.2,0.2,3.2s0,1.7,0,2.3c0,0.6-0.1,1-0.2,1.1c-0.2,0.2-0.7,0.3-1.5,0.4c-0.8,0-1.7,0.1-2.7,0.1c-1,0-2-0.1-3.1-0.1
		c-1-0.1-1.9-0.2-2.5-0.2c-0.4,0-0.7-0.6-0.9-1.5c-0.2-1-0.3-2.1-0.3-3.6c0-1.4,0-3,0.2-4.6C4.3,18,4.5,16.4,4.6,15
		c0.1-1.5,0.2-2.7,0.3-3.7c0.1-1,0.1-1.6,0-1.8C4.8,9.3,4.6,9.1,4.1,9.1C3.7,9,3.2,9,2.7,9c-0.5,0-1-0.1-1.5-0.1
		c-0.5,0-0.8-0.1-1-0.3C0.2,8.4,0.1,8.1,0,7.7C0,7.3,0,6.8,0,6.2C0,5.6,0.1,5,0.1,4.4c0.1-0.6,0.1-1.2,0.2-1.8
		c0.1-0.5,0.2-1,0.3-1.4C0.8,0.8,1,0.6,1.1,0.6z"/>
	<path class="st1" d="M26,4.7c0.1-1.3,0.3-2.2,0.5-2.9c0.2-0.6,0.5-1.1,0.9-1.3c0.4-0.3,0.8-0.4,1.4-0.4c0.5,0,1.2,0,1.9,0
		c1.2,0,2.1,0,2.8,0c0.7,0,1.2,0.2,1.6,0.5c0.4,0.3,0.6,0.8,0.7,1.5C35.9,2.9,36,3.9,36,5.3c0,1.2,0.1,2.6,0.1,4.2
		c0,1.5,0,3.1,0.1,4.8s0,3.2,0,4.8c0,1.6,0,3.1,0,4.4c0,1.6,0,2.8-0.1,3.7C36,28,35.8,28.6,35.5,29c-0.3,0.4-0.9,0.6-1.6,0.7
		c-0.7,0.1-1.7,0.1-3,0.2c-1.1,0.1-2,0-2.6-0.1c-0.7-0.1-1.2-0.4-1.5-0.8c-0.4-0.4-0.6-1-0.8-1.7c-0.2-0.7-0.3-1.7-0.3-2.8
		c-0.1-1.4-0.1-3-0.1-4.7c0-1.7,0-3.5,0.1-5.2c0-1.8,0.1-3.5,0.2-5.2S25.9,6,26,4.7z"/>
	<path class="st1" d="M55.7,11.6c0.2,0,0.5-0.3,0.7-0.8c0.3-0.5,0.6-1.2,1-1.9c0.3-0.8,0.7-1.6,1.1-2.5c0.4-0.9,0.8-1.8,1.1-2.6
		c0.4-0.8,0.7-1.5,1-2.1c0.3-0.6,0.6-0.9,0.9-1c0.4-0.1,1-0.2,1.8-0.3c0.8-0.1,1.5-0.1,2.4-0.1c0.8,0,1.6,0.1,2.3,0.3
		c0.7,0.2,1.2,0.5,1.6,0.8c0.2,0.2,0.3,0.7,0.4,1.6c0.1,0.8,0.2,1.9,0.3,3.1c0.1,1.3,0.2,2.7,0.2,4.2c0.1,1.5,0.1,3.1,0.1,4.7
		c0,1.6,0,3.2,0,4.7c0,1.5-0.1,2.9-0.1,4.2c-0.1,1.2-0.1,2.3-0.2,3.1c-0.1,0.8-0.2,1.3-0.3,1.5c-0.3,0.3-0.7,0.6-1.5,0.7
		c-0.7,0.2-1.5,0.2-2.4,0.2s-1.6,0-2.4-0.2c-0.7-0.1-1.2-0.3-1.5-0.5c-0.2-0.1-0.3-0.5-0.3-1.2c0-0.7,0-1.5,0-2.4
		c0-0.9,0.1-1.9,0.2-3c0.1-1,0.1-2,0.1-2.9c0-0.9,0-1.6-0.1-2.2c-0.1-0.6-0.2-0.9-0.4-1c-0.2-0.1-0.5,0.1-0.7,0.5
		c-0.2,0.4-0.4,0.9-0.6,1.6c-0.2,0.6-0.4,1.3-0.6,2.1c-0.2,0.8-0.4,1.5-0.6,2.2c-0.2,0.7-0.4,1.3-0.7,1.8c-0.2,0.5-0.5,0.8-0.7,1
		c-0.6,0.4-1.3,0.6-2.1,0.6c-0.8,0-1.5-0.2-2.2-0.6c-0.2-0.1-0.5-0.4-0.7-1c-0.2-0.5-0.4-1.1-0.6-1.8c-0.2-0.7-0.4-1.4-0.6-2.2
		c-0.2-0.8-0.4-1.5-0.6-2.1c-0.2-0.6-0.4-1.2-0.6-1.6c-0.2-0.4-0.4-0.6-0.7-0.5c-0.2,0.1-0.4,0.4-0.4,1c-0.1,0.6-0.1,1.3-0.1,2.2
		c0,0.9,0.1,1.9,0.1,2.9c0.1,1,0.1,2,0.2,3c0,0.9,0,1.7,0,2.4c0,0.7-0.1,1.1-0.3,1.2c-0.3,0.2-0.7,0.4-1.5,0.5
		c-0.7,0.1-1.5,0.2-2.4,0.2c-0.8,0-1.6-0.1-2.4-0.2c-0.7-0.2-1.2-0.4-1.5-0.7c-0.1-0.2-0.2-0.7-0.3-1.5C41,26.3,41,25.3,40.9,24
		c-0.1-1.2-0.1-2.6-0.1-4.2c0-1.5,0-3.1,0-4.7c0-1.6,0.1-3.2,0.1-4.7c0.1-1.5,0.1-3,0.2-4.2c0.1-1.3,0.2-2.3,0.3-3.1
		c0.1-0.8,0.3-1.4,0.4-1.6c0.3-0.4,0.9-0.7,1.6-0.8c0.7-0.2,1.5-0.3,2.3-0.3c0.8,0,1.6,0,2.4,0.1s1.3,0.2,1.8,0.3
		c0.3,0.1,0.6,0.4,0.9,1c0.3,0.6,0.7,1.3,1,2.1c0.4,0.8,0.7,1.6,1.1,2.6c0.4,0.9,0.7,1.7,1.1,2.5c0.3,0.8,0.7,1.4,0.9,1.9
		C55.2,11.3,55.5,11.6,55.7,11.6z"/>
	<path class="st1" d="M95.4,8.1c-0.2,0.2-0.6,0.3-1.1,0.3c-0.5,0.1-1,0.1-1.6,0.2c-0.6,0.1-1.2,0.1-1.9,0.1c-0.7,0-1.3,0.1-1.8,0.1
		s-1.1,0.1-1.5,0.1c-0.4,0-0.7,0.1-0.8,0.2c-0.2,0.1-0.3,0.3-0.3,0.6c-0.1,0.3-0.1,0.6-0.1,0.9c0,0.3,0,0.6,0.1,1
		c0.1,0.3,0.1,0.5,0.2,0.7c0.1,0.2,0.3,0.2,0.7,0.2c0.4,0,0.9,0,1.4,0c0.5,0,1,0,1.4,0c0.5,0,0.8,0.1,1,0.3c0.2,0.2,0.3,0.5,0.5,0.8
		c0.1,0.4,0.2,0.8,0.3,1.3c0,0.5,0.1,0.9,0,1.4c0,0.5-0.1,0.9-0.3,1.2c-0.1,0.2-0.4,0.4-0.8,0.4S89.9,18,89.3,18
		c-0.5,0.1-1.1,0.2-1.7,0.3c-0.6,0.1-1,0.4-1.3,0.7c-0.1,0.1-0.2,0.3-0.2,0.5c0,0.2,0,0.4,0,0.6c0,0.2,0.1,0.5,0.1,0.7
		c0,0.3,0.1,0.5,0.2,0.7c0,0.2,0.2,0.3,0.7,0.4c0.4,0.1,0.9,0.1,1.6,0.1c0.6,0,1.3,0,2-0.1c0.7,0,1.4-0.1,2.1-0.1
		c0.7,0,1.3,0,1.8,0.1c0.5,0.1,0.9,0.2,1.2,0.3c0.2,0.2,0.4,0.5,0.5,1.2c0.1,0.6,0.2,1.3,0.2,2c0,0.7,0,1.4,0,2.1s-0.1,1.1-0.2,1.3
		c-0.1,0.1-0.4,0.2-0.9,0.3c-0.6,0.1-1.3,0.2-2.2,0.3c-0.9,0.1-1.9,0.2-3.1,0.2c-1.1,0.1-2.3,0.1-3.5,0.1c-1.2,0-2.4,0.1-3.5,0
		c-1.2,0-2.2-0.1-3.2-0.1c-1-0.1-1.8-0.2-2.4-0.3c-0.6-0.1-1-0.3-1.2-0.5c-0.3-0.4-0.6-1.1-0.7-2.2c-0.2-1.1-0.3-2.4-0.3-4
		c-0.1-1.6-0.1-3.3,0-5.2c0.1-1.9,0.1-3.9,0.2-5.9c0.1-2,0.1-3.7,0.2-5.2c0-1.4,0.2-2.6,0.5-3.5c0.3-0.9,0.8-1.6,1.4-2
		c0.7-0.4,1.7-0.7,3-0.7c1.1,0,2.4-0.1,3.8-0.2c1.4-0.1,2.8-0.1,4.2,0c1.4,0,2.7,0.1,3.9,0.2c1.2,0.1,2.1,0.3,2.9,0.6
		c0.4,0.2,0.6,0.6,0.7,1.2c0.1,0.7,0.2,1.4,0.1,2.2c0,0.8-0.1,1.6-0.3,2.3C95.7,7.4,95.6,7.8,95.4,8.1z"/>
	<path class="st1" d="M102.1,1.2c0.4-0.2,1-0.4,1.8-0.6c0.9-0.2,1.9-0.3,3-0.4c1.1-0.1,2.3-0.2,3.5-0.2c1.2,0,2.4-0.1,3.5-0.1
		c1.1,0,2,0.1,2.8,0.1c0.8,0.1,1.3,0.1,1.5,0.2c0.3,0.2,0.6,0.5,0.8,1c0.2,0.5,0.4,1.1,0.5,1.8c0.1,0.6,0.2,1.3,0.2,1.9
		c0,0.6,0,1.1-0.1,1.5c-0.1,0.3-0.2,0.8-0.5,1.6c-0.3,0.8-0.6,1.7-1,2.7s-0.8,2.1-1.3,3.3c-0.5,1.2-0.9,2.2-1.3,3.2
		c-0.4,1-0.7,1.9-1,2.6c-0.3,0.7-0.4,1.1-0.4,1.3c0,0.2,0.2,0.4,0.7,0.5c0.5,0.1,1,0.2,1.6,0.3c0.6,0.1,1.2,0.2,1.8,0.3
		c0.6,0.1,0.9,0.2,1.1,0.4c0.2,0.2,0.2,0.6,0.2,1.2c0,0.6-0.1,1.2-0.2,1.9c-0.1,0.7-0.3,1.3-0.5,1.9c-0.2,0.6-0.4,1-0.6,1.2
		c-0.1,0.1-0.5,0.2-1,0.3c-0.5,0.1-1.2,0.2-2,0.2c-0.8,0.1-1.7,0.1-2.6,0.1c-1,0-1.9,0-2.9,0c-1,0-1.9-0.1-2.7-0.1
		c-0.9,0-1.6-0.1-2.3-0.2c-0.9-0.1-1.6-0.3-2.1-0.6c-0.4-0.3-0.7-0.7-0.9-1.3c-0.1-0.5-0.2-1.1-0.1-1.8c0-0.7,0.1-1.5,0.1-2.3
		c0-0.6,0.2-1.3,0.5-2.2c0.3-0.9,0.7-1.8,1.2-2.8c0.5-1,1-2,1.5-3.1c0.5-1,1-2,1.5-2.9c0.5-0.9,0.8-1.7,1.1-2.3
		c0.3-0.7,0.5-1.1,0.5-1.3c0-0.3-0.3-0.5-0.9-0.6c-0.6-0.1-1.3-0.2-2.1-0.2c-0.8,0-1.5,0-2.2-0.1c-0.7,0-1.2-0.2-1.3-0.4
		c-0.2-0.2-0.3-0.7-0.3-1.3c-0.1-0.6-0.1-1.3,0-2c0-0.7,0.2-1.3,0.3-1.9C101.7,1.7,101.9,1.4,102.1,1.2z"/>
	<path class="st1" d="M136.3,0.4c1.9,0.1,3.5,0.3,4.8,0.6c1.3,0.3,2.4,0.8,3.3,1.4c0.9,0.6,1.6,1.3,2.1,2.2c0.5,0.9,0.9,2,1.1,3.2
		c0.3,1.2,0.4,2.7,0.5,4.3c0.1,1.6,0.1,3.5,0.1,5.5c0,2.6-0.2,4.6-0.6,6.2c-0.4,1.6-1,2.8-1.9,3.8c-0.9,0.9-2.1,1.5-3.6,1.9
		c-1.5,0.3-3.3,0.5-5.6,0.6c-2.2,0-4.1-0.1-5.7-0.4c-1.6-0.3-3-0.9-4.1-1.9c-1.1-0.9-1.9-2.2-2.5-3.8c-0.6-1.6-1-3.8-1.1-6.3
		c-0.2-2.9-0.1-5.4,0.3-7.6c0.3-2.2,1-4,2-5.5c1-1.5,2.4-2.5,4.2-3.2C131.4,0.5,133.6,0.2,136.3,0.4z M133.5,20.8
		c0,0.6,0.3,1.1,0.8,1.3c0.5,0.3,1.1,0.4,1.8,0.4c0.7,0,1.3-0.2,1.8-0.6c0.6-0.3,0.9-0.8,0.9-1.4c0.1-0.8,0.1-1.6,0.2-2.4
		c0-0.7,0.1-1.5,0-2.2c0-0.7,0-1.5-0.1-2.4c-0.1-0.8-0.1-1.8-0.3-2.9c-0.1-0.6-0.4-1.1-1-1.4c-0.6-0.3-1.2-0.4-1.8-0.4
		c-0.7,0-1.3,0.2-1.8,0.5c-0.5,0.3-0.8,0.7-0.9,1.3c-0.1,0.9-0.1,1.8-0.1,2.9c0,1.1,0,2.1,0.1,3.1c0.1,1,0.1,1.9,0.2,2.6
		C133.5,20.1,133.5,20.6,133.5,20.8z"/>
</g>
</svg>
